<?xml version="1.0" standalone="no"?>
<!DOCTYPE svg PUBLIC "-//W3C//DTD SVG 20010904//EN"
 "http://www.w3.org/TR/2001/REC-SVG-20010904/DTD/svg10.dtd">
<svg version="1.0" xmlns="http://www.w3.org/2000/svg"
 width="50.000000pt" height="1935.000000pt" viewBox="0 0 1963.000000 1935.000000"
 preserveAspectRatio="xMidYMid meet">
<metadata>
Created by potrace 1.16, written by Peter Selinger 2001-2019
</metadata>
<g transform="translate(0.000000,1935.000000) scale(0.100000,-0.100000)"
fill="#DDDDDD" stroke="none">
<path d="M9800 19343 c-69 -10 -122 -28 -193 -64 -95 -48 -202 -89 -233 -89
-27 0 -31 -12 -9 -30 19 -16 19 -37 0 -48 -13 -7 -14 -14 -5 -36 5 -15 10 -45
10 -66 0 -32 6 -43 30 -60 17 -12 30 -30 30 -42 0 -11 24 -42 55 -72 30 -28
55 -57 55 -63 0 -6 28 -40 63 -77 78 -82 87 -93 87 -104 0 -5 24 -32 54 -61
30 -28 52 -51 49 -51 -3 0 12 -20 33 -45 105 -121 105 -121 125 -212 10 -48
19 -105 19 -126 0 -21 7 -54 16 -73 12 -26 15 -50 11 -91 -3 -30 -2 -92 4
-137 16 -142 9 -692 -10 -831 -6 -38 -13 -158 -15 -266 -3 -107 -8 -202 -10
-210 -3 -8 -7 -216 -10 -462 -3 -364 -6 -451 -17 -461 -8 -7 -34 -21 -59 -30
-25 -10 -94 -42 -155 -71 -145 -70 -274 -127 -360 -160 -38 -14 -93 -37 -122
-50 -28 -14 -78 -31 -110 -39 -56 -13 -83 -23 -148 -50 -110 -47 -135 -57
-175 -72 -25 -8 -76 -19 -115 -24 -38 -5 -104 -15 -145 -23 -105 -21 -256 -38
-380 -43 -58 -3 -145 -11 -195 -20 -67 -11 -110 -12 -170 -6 -44 5 -152 10
-240 11 -133 2 -164 5 -184 19 -80 58 -101 65 -101 34 0 -23 -30 -52 -53 -52
-9 0 -32 7 -51 16 -51 25 -66 15 -53 -35 10 -36 9 -42 -8 -55 -28 -20 -55 -33
-86 -40 -14 -3 -31 -16 -38 -29 -11 -21 -7 -34 39 -120 35 -68 54 -116 60
-159 17 -115 23 -133 54 -170 17 -20 36 -53 42 -75 6 -21 20 -67 30 -102 15
-51 28 -72 64 -105 24 -22 63 -60 85 -82 48 -50 80 -70 122 -77 18 -4 79 -29
136 -57 58 -27 108 -50 112 -50 10 0 121 -47 158 -67 16 -8 31 -12 34 -9 3 3
15 -1 27 -9 11 -8 29 -15 39 -15 10 0 56 -18 103 -40 59 -29 84 -46 84 -59 0
-29 127 -101 207 -116 59 -12 57 -15 -62 -101 -11 -7 -59 -43 -108 -79 -48
-35 -97 -70 -110 -76 -12 -7 -45 -30 -73 -51 -28 -21 -55 -38 -59 -38 -5 0
-40 -20 -79 -44 -39 -24 -85 -51 -103 -60 -17 -8 -37 -21 -45 -29 -7 -7 -44
-30 -82 -51 -232 -130 -308 -155 -482 -161 -95 -4 -143 -10 -187 -26 -39 -14
-73 -19 -97 -16 -21 3 -43 0 -49 -6 -6 -6 -11 -7 -11 -2 0 5 -18 -8 -39 -29
-27 -26 -45 -37 -56 -32 -11 4 -30 -5 -53 -24 -20 -16 -43 -30 -50 -30 -23 0
-89 -58 -102 -89 -13 -32 -82 -86 -155 -119 -58 -27 -121 -147 -165 -312 -14
-52 -15 -766 -1 -885 7 -55 23 -143 37 -195 27 -104 47 -217 65 -355 20 -167
68 -386 106 -485 3 -8 14 -35 23 -60 18 -49 96 -243 110 -275 25 -56 75 -175
90 -215 9 -25 20 -52 23 -60 11 -29 59 -167 102 -298 24 -73 53 -152 64 -175
10 -23 38 -91 61 -152 41 -107 70 -180 96 -240 7 -16 21 -52 32 -80 11 -27 32
-77 47 -110 51 -112 66 -150 95 -240 11 -36 92 -212 139 -305 10 -19 29 -62
41 -95 31 -79 68 -146 90 -166 10 -9 39 -56 65 -105 26 -49 59 -105 74 -124
22 -29 61 -90 120 -190 5 -8 25 -48 45 -87 19 -40 50 -92 68 -116 101 -135
128 -169 192 -242 38 -44 74 -84 80 -90 41 -39 41 -42 -18 -114 -59 -71 -61
-77 -47 -100 7 -11 14 -9 34 12 33 37 41 34 33 -13 -4 -25 -2 -40 4 -40 20 0
9 -20 -47 -87 -32 -37 -63 -75 -70 -83 -74 -93 -172 -199 -240 -260 -15 -14
-46 -47 -68 -74 -22 -27 -61 -69 -87 -94 -44 -41 -63 -82 -38 -82 5 0 40 14
76 31 47 22 69 28 76 21 19 -19 -9 -41 -44 -37 -39 5 -88 -27 -82 -53 3 -9 -3
-26 -14 -37 -10 -12 -22 -32 -25 -45 -4 -15 -31 -43 -65 -67 -32 -23 -68 -53
-81 -67 -14 -14 -40 -29 -60 -32 -40 -7 -111 -68 -111 -94 0 -23 -61 -79 -67
-62 -6 17 -43 -14 -43 -36 0 -20 -141 -151 -162 -152 -11 0 -15 -5 -12 -14 3
-8 -4 -19 -16 -26 -12 -6 -19 -14 -16 -17 3 -3 -17 -29 -43 -57 -27 -28 -68
-73 -91 -101 -24 -27 -48 -52 -54 -54 -6 -2 -15 -10 -21 -17 -5 -7 -19 -14
-30 -16 -24 -4 -34 -38 -11 -38 9 0 16 -4 16 -10 0 -18 -110 -174 -207 -293
-33 -41 -39 -53 -26 -56 9 -1 20 4 25 13 10 17 38 22 38 6 0 -21 -24 -60 -42
-65 -10 -4 -18 -15 -18 -26 0 -10 -7 -19 -15 -19 -18 0 -20 21 -3 38 9 9 9 12
-1 12 -25 0 -52 -21 -77 -61 -13 -22 -35 -44 -48 -49 -15 -5 -29 -23 -35 -43
-17 -52 -85 -120 -110 -112 -11 3 -30 1 -41 -5 -12 -6 -31 -13 -42 -15 -29 -6
-63 -40 -65 -64 -2 -25 -50 -95 -95 -138 -54 -53 -119 -103 -133 -103 -11 0
-126 -102 -221 -196 -40 -40 -159 -104 -219 -118 -16 -4 -49 -17 -74 -28 -41
-18 -46 -19 -56 -4 -23 30 -86 47 -218 57 -73 5 -159 16 -192 24 -73 18 -248
16 -267 -3 -6 -6 -29 -12 -50 -12 -34 0 -38 3 -38 25 0 18 -7 28 -27 36 -34
13 -163 1 -169 -16 -3 -7 -23 -11 -47 -11 -26 1 -54 -6 -70 -17 l-28 -18 22
-35 c17 -28 19 -38 10 -47 -10 -9 -17 -6 -33 13 l-20 25 3 -50 c5 -96 -2 -112
-35 -80 -38 39 -114 -16 -103 -74 5 -23 1 -30 -19 -39 -31 -15 -30 -30 6 -80
19 -27 30 -54 30 -75 0 -34 35 -153 50 -172 19 -24 22 -86 6 -129 -16 -42 -16
-46 7 -108 38 -99 63 -142 94 -160 16 -9 34 -27 40 -40 35 -75 73 -160 73
-165 0 -10 74 -106 112 -145 21 -21 38 -43 38 -47 0 -5 26 -26 57 -47 32 -22
69 -49 83 -61 18 -17 37 -23 70 -23 44 0 46 -2 63 -41 10 -23 36 -59 58 -81
33 -32 43 -37 54 -28 8 7 15 26 15 42 0 25 3 29 18 23 9 -4 29 -11 43 -15 14
-4 35 -13 46 -20 17 -11 27 -10 65 8 49 24 69 27 84 12 6 -6 50 -15 100 -21
49 -6 103 -18 121 -26 18 -8 37 -12 43 -8 14 9 100 -61 100 -81 0 -11 6 -13
19 -9 12 4 24 -1 33 -12 7 -10 25 -19 41 -20 22 -1 27 3 27 23 0 30 25 32 42
4 13 -20 43 -27 50 -12 5 12 65 42 84 42 22 0 82 19 157 49 16 6 32 9 37 6 5
-3 18 0 29 7 17 10 24 9 44 -10 34 -32 47 -28 47 17 0 66 10 98 36 110 13 6
24 17 24 24 0 7 28 38 61 68 34 30 74 66 89 82 16 15 39 27 52 27 12 1 39 14
58 30 19 17 44 30 57 30 23 0 53 42 53 74 0 8 15 25 33 37 38 27 52 47 52 74
0 13 8 21 23 23 12 2 20 7 17 11 -2 5 7 21 22 37 23 25 27 38 28 91 0 52 3 63
17 63 9 0 23 14 32 31 12 24 13 34 3 50 -10 17 -9 23 9 38 12 10 23 26 25 36
4 18 18 28 54 40 14 4 16 8 7 14 -18 11 51 86 72 78 14 -6 66 43 66 62 0 4 11
13 24 19 22 10 86 93 86 112 0 4 19 27 42 51 40 40 41 42 22 56 -19 14 -18 15
5 34 13 10 34 19 47 19 16 0 24 6 24 18 1 41 71 80 84 46 8 -22 64 -11 83 16
8 11 22 20 31 21 9 0 38 24 64 53 44 49 47 56 38 86 -10 35 10 80 35 80 7 0
16 11 19 24 5 20 12 24 38 22 30 -1 33 1 32 29 -1 35 10 45 52 45 22 0 36 8
52 30 29 39 28 46 -4 25 -34 -22 -43 -11 -16 18 12 13 22 29 22 35 0 7 4 12 9
12 5 0 19 15 32 34 12 18 37 41 55 51 33 17 53 45 33 45 -6 0 -1 14 11 30 16
22 27 29 41 25 28 -9 57 11 64 45 4 17 16 35 27 41 11 6 17 13 14 16 -3 3 12
20 33 37 21 17 56 51 77 75 22 24 77 83 123 130 46 47 96 104 111 127 30 42
111 114 129 114 6 0 11 7 11 15 0 8 6 15 14 15 8 0 23 11 33 24 10 13 30 27
43 31 39 12 52 25 40 40 -12 15 3 30 19 21 14 -9 41 4 41 20 0 7 16 16 35 20
19 3 38 11 42 17 4 6 0 8 -10 4 -10 -3 -17 -3 -17 1 0 16 25 32 50 32 15 0 37
11 50 25 13 14 29 25 36 25 6 0 17 7 24 15 9 10 9 15 1 15 -6 0 -11 5 -11 10
0 6 7 10 15 10 8 0 15 7 15 15 0 10 10 15 34 15 46 0 137 46 129 65 -3 10 1
15 16 15 11 0 26 9 33 20 7 11 18 20 25 20 7 0 13 11 13 25 0 14 6 25 13 25 7
0 26 13 43 28 17 16 47 36 65 46 96 51 100 53 83 60 -26 10 -7 21 37 22 22 0
44 5 51 12 9 9 -1 10 -40 5 -32 -3 -52 -2 -52 4 0 13 35 45 42 38 8 -8 58 13
58 25 0 5 -7 10 -15 10 -8 0 -15 -4 -15 -10 0 -13 -37 -13 -45 0 -13 21 17 40
61 40 41 0 44 2 39 23 -6 21 -3 23 37 24 75 2 81 4 106 23 23 19 25 19 48 2
21 -14 24 -23 19 -55 -3 -21 -5 -203 -4 -405 1 -202 0 -486 -1 -631 -1 -145
-3 -572 -5 -950 -5 -881 -6 -899 -51 -1070 -52 -200 -74 -259 -102 -281 -27
-22 -82 -26 -112 -10 -11 6 -32 12 -47 14 -60 9 -251 100 -368 176 -93 60
-315 180 -334 180 -32 0 -117 35 -164 67 -26 18 -51 33 -55 33 -5 0 -26 15
-48 32 -59 50 -95 72 -139 87 -22 8 -65 37 -95 65 -30 28 -82 77 -116 109 -33
31 -67 57 -75 57 -8 0 -33 18 -54 40 -22 22 -58 49 -80 60 -23 11 -63 42 -91
70 -27 27 -53 50 -58 50 -5 0 -28 16 -52 35 -23 19 -48 35 -55 35 -7 0 -27 11
-44 24 -46 36 -75 26 -75 -25 0 -38 17 -77 66 -148 13 -20 24 -41 24 -48 0 -6
11 -24 24 -40 13 -15 36 -46 52 -69 16 -23 52 -71 79 -108 116 -156 142 -192
155 -216 7 -13 38 -58 69 -98 31 -41 61 -82 66 -91 6 -8 25 -33 43 -55 17 -22
32 -44 32 -49 0 -15 74 -117 86 -117 12 0 54 -42 54 -54 0 -4 33 -44 74 -89
124 -138 211 -251 311 -406 135 -209 186 -283 230 -331 46 -51 95 -115 95
-125 0 -4 13 -24 28 -44 45 -57 122 -170 122 -178 0 -5 22 -34 49 -65 27 -31
58 -72 70 -90 11 -18 43 -55 71 -83 27 -27 53 -58 56 -70 4 -11 33 -60 65
-109 33 -48 59 -96 59 -105 0 -10 9 -26 20 -36 11 -10 20 -24 20 -31 0 -14
174 -194 188 -194 5 0 23 -12 40 -28 18 -15 46 -38 63 -52 17 -14 42 -35 54
-46 89 -82 266 -124 507 -119 76 1 150 7 165 13 16 5 48 16 73 23 105 30 196
72 237 110 23 21 49 39 57 39 14 0 42 21 87 65 9 9 20 30 23 47 4 21 28 53 70
93 57 55 65 67 71 111 3 27 10 59 16 72 5 13 9 34 9 47 0 13 5 27 11 30 10 7
28 45 25 55 0 3 9 19 20 35 12 17 38 62 57 100 37 74 40 99 20 196 -6 26 -6
55 -1 69 5 13 13 58 19 99 6 42 17 85 24 97 7 12 14 47 14 78 0 32 5 63 11 71
8 9 9 39 5 92 -6 66 -5 81 9 92 11 9 16 30 16 65 0 29 5 57 12 64 6 6 12 44
13 84 2 42 7 74 14 76 16 5 13 49 -6 85 -23 41 -25 253 -4 339 11 47 12 66 2
99 -7 22 -14 72 -16 112 -2 40 -11 101 -19 136 -10 43 -12 71 -5 87 5 14 6 71
2 129 -4 67 -2 119 6 147 6 24 13 111 15 193 2 83 9 164 16 180 6 17 12 76 13
132 1 57 6 103 11 103 5 0 5 23 1 53 -9 61 -9 47 0 172 4 69 2 118 -7 160 -7
33 -12 80 -10 104 l3 44 72 -7 c39 -4 74 -10 77 -14 7 -10 42 -32 63 -38 9 -4
17 -10 17 -14 0 -14 57 -29 68 -18 6 6 19 7 29 4 17 -7 17 -8 1 -20 -10 -7
-18 -18 -18 -24 0 -6 -8 -15 -17 -21 -13 -7 -2 -9 41 -8 58 2 59 1 80 -35 28
-50 63 -88 80 -88 8 0 16 -7 20 -15 3 -8 11 -15 17 -15 6 0 27 -13 46 -30 18
-16 38 -30 43 -30 6 0 10 -9 10 -20 0 -11 5 -20 10 -20 6 0 36 -16 66 -35 42
-27 53 -39 45 -48 -7 -10 3 -18 40 -35 54 -25 59 -37 29 -70 l-20 -21 35 -10
c19 -5 44 -7 55 -4 11 3 27 0 35 -7 9 -8 28 -10 50 -6 40 8 46 -5 16 -31 -23
-19 -19 -33 10 -33 12 0 23 -10 29 -25 9 -25 30 -35 30 -14 0 6 17 9 43 7 31
-2 42 -7 42 -20 0 -9 4 -20 8 -24 17 -18 6 -34 -25 -34 -28 -1 -30 -2 -15 -11
13 -7 27 -7 48 0 24 8 34 7 45 -3 7 -8 19 -16 26 -18 23 -8 -4 -28 -38 -28
-19 0 -34 -4 -34 -9 0 -16 29 -33 46 -27 23 9 64 -4 64 -20 0 -8 -10 -19 -22
-24 -14 -5 -17 -9 -8 -9 8 -1 26 -19 40 -41 14 -22 28 -40 32 -40 5 0 8 -5 8
-10 0 -6 9 -23 20 -38 18 -24 27 -28 63 -26 56 3 61 -2 37 -36 -27 -38 -25
-51 13 -75 18 -11 38 -34 46 -52 14 -31 46 -53 80 -53 19 0 39 -18 40 -35 0
-5 8 -12 18 -14 26 -5 43 -21 43 -40 0 -22 55 -72 103 -94 50 -22 55 -22 69 9
11 24 16 26 57 20 62 -8 73 -22 39 -48 -38 -27 -35 -41 5 -35 30 4 54 -4 152
-56 28 -14 87 -28 195 -47 53 -9 107 -28 135 -47 11 -7 31 -13 46 -13 14 0 39
-11 55 -25 24 -20 36 -24 79 -20 34 3 56 -1 70 -11 17 -12 18 -16 5 -24 -8 -5
-12 -10 -10 -12 3 -2 19 -13 37 -26 35 -24 53 -28 53 -12 0 13 59 4 105 -16
17 -6 52 -15 78 -19 33 -5 47 -12 43 -20 -5 -14 108 -46 121 -34 5 4 21 9 37
11 22 2 30 -1 32 -15 5 -38 14 -47 45 -47 17 0 44 8 60 17 22 13 34 15 47 7
13 -8 23 -7 40 4 21 14 25 13 50 -12 34 -32 49 -33 78 -5 25 24 74 27 134 9
47 -14 80 -13 111 3 14 8 65 17 115 20 106 9 202 24 228 38 10 6 43 13 74 15
31 3 61 9 68 15 6 5 16 9 20 8 38 -7 115 3 129 17 8 9 22 13 30 10 8 -3 20 3
27 13 10 14 24 17 63 15 31 -2 58 3 72 12 13 8 43 17 67 20 36 5 46 11 48 28
2 15 11 22 33 24 17 2 35 9 40 15 6 7 26 13 45 14 19 2 36 7 38 13 2 5 12 10
23 10 10 0 19 5 19 10 0 6 8 10 19 10 10 0 24 7 31 15 7 8 18 15 26 15 7 0 17
6 21 13 4 7 31 21 58 31 28 10 57 25 66 32 8 8 24 14 35 14 10 0 37 20 59 45
22 25 44 45 51 45 14 0 94 85 94 100 0 7 8 9 19 5 14 -4 20 1 25 21 6 24 10
25 42 20 28 -6 35 -3 41 11 9 27 93 104 133 123 44 21 83 61 104 104 16 33 79
91 126 116 43 23 75 54 75 75 0 12 12 26 31 36 41 20 88 75 103 119 6 19 25
46 42 60 17 14 49 40 72 58 22 18 48 37 58 43 11 5 19 14 19 20 0 17 52 89 65
89 7 0 16 11 19 24 5 19 14 25 55 30 28 4 52 10 55 15 3 4 -2 33 -11 64 -14
52 -14 59 1 89 58 113 90 154 142 181 18 9 47 33 65 54 19 20 46 49 62 64 16
16 23 30 17 34 -17 10 -11 34 16 71 15 19 24 40 20 50 -3 8 2 48 11 87 9 40
16 75 15 79 -3 12 40 58 55 58 7 0 13 11 13 23 0 13 9 32 20 42 11 10 20 24
20 32 0 7 5 13 10 13 6 0 10 15 10 33 0 45 16 96 38 121 26 29 47 105 33 119
-21 21 -11 46 27 67 37 21 37 23 37 78 0 31 -4 60 -9 63 -10 8 49 70 83 88 11
7 21 18 21 26 0 8 7 15 15 15 8 0 15 7 15 16 0 8 11 30 25 48 14 18 25 37 25
42 1 5 9 27 20 49 11 22 19 44 20 49 0 4 12 35 27 67 17 37 32 58 40 55 7 -3
13 2 13 10 0 10 6 14 15 11 25 -10 36 20 37 95 0 39 6 53 34 84 19 20 34 40
34 44 0 4 9 10 20 13 12 3 20 14 20 26 0 43 42 111 90 146 26 19 53 35 59 35
6 0 11 5 11 10 0 16 -40 12 -46 -4 -7 -17 -34 -10 -34 9 0 7 7 18 15 25 8 7
15 21 15 32 0 20 42 68 60 68 5 0 10 -6 10 -13 0 -9 14 -12 47 -10 51 3 57 7
68 41 6 21 5 21 -21 12 -30 -12 -54 -7 -54 11 0 6 20 31 46 55 29 28 42 49 37
57 -13 21 -13 41 1 57 7 8 16 23 19 33 4 9 13 17 21 17 9 0 19 16 26 38 10 39
31 64 63 75 16 6 22 28 18 73 -1 12 6 27 14 34 12 10 13 15 3 28 -10 12 -10
16 -1 19 7 3 13 10 13 16 0 26 36 87 53 87 9 0 17 -4 17 -10 0 -5 7 -10 15
-10 8 0 15 8 15 19 0 10 7 24 15 31 8 7 12 16 10 21 -3 5 3 14 14 20 10 7 17
18 14 25 -3 7 7 29 22 48 18 24 26 44 23 60 -4 18 2 30 23 45 15 12 34 18 42
15 17 -6 32 12 17 21 -5 3 -10 15 -10 26 0 10 -5 19 -11 19 -5 0 -7 -5 -4 -11
4 -5 -4 -20 -18 -32 -83 -72 -97 -80 -97 -53 0 8 12 25 28 38 36 30 77 88 62
88 -13 0 -65 -47 -207 -187 -56 -57 -108 -103 -115 -103 -6 0 -20 -8 -30 -17
-13 -12 -22 -13 -29 -6 -12 12 32 90 55 99 8 3 16 18 20 34 3 16 14 38 25 49
11 11 17 22 14 25 -4 3 1 14 9 23 9 10 19 29 23 43 7 23 6 24 -10 10 -9 -8
-49 -57 -89 -109 -92 -121 -91 -121 -105 -121 -16 0 -14 14 10 54 18 31 19 36
5 36 -9 0 -16 -5 -16 -10 0 -12 -50 -59 -64 -60 -18 0 7 56 40 88 19 18 34 39
34 46 0 8 15 19 33 26 33 14 66 46 67 67 0 7 11 23 25 37 28 28 32 46 11 46
-14 0 -174 -152 -234 -222 -18 -21 -37 -38 -42 -38 -5 0 -20 -11 -34 -25 -15
-15 -37 -25 -54 -25 -29 0 -72 -35 -72 -58 0 -7 -8 -12 -19 -12 -10 0 -24 -7
-32 -16 -7 -8 -26 -22 -42 -30 l-29 -16 5 44 c4 40 28 120 49 160 6 13 4 18
-6 18 -8 0 -16 6 -19 13 -3 9 -9 9 -26 0 -32 -20 -51 -16 -51 10 0 28 18 47
37 40 10 -4 13 0 11 12 -2 9 6 22 16 29 28 16 75 69 76 84 0 7 7 15 15 18 8 4
15 14 15 23 1 9 22 26 52 41 43 21 48 26 29 28 -23 4 -23 4 10 38 18 19 37 34
41 34 5 0 19 9 31 21 25 24 150 108 187 126 14 6 43 27 64 46 41 37 44 67 7
67 -28 0 -101 -30 -101 -41 0 -5 -9 -9 -19 -9 -11 0 -23 -4 -26 -10 -9 -14
-35 -12 -35 3 0 6 14 20 31 29 17 10 28 22 25 26 -3 5 4 23 14 40 16 26 17 32
5 32 -8 0 -15 -3 -15 -7 0 -5 -16 -19 -35 -32 -43 -29 -85 -68 -85 -78 0 -9
-72 -61 -110 -81 -14 -7 -36 -19 -50 -27 -14 -8 -35 -15 -47 -15 -13 0 -23 -5
-23 -10 0 -6 -25 -22 -56 -37 -42 -20 -60 -24 -73 -16 -13 8 -21 4 -40 -18
-18 -21 -28 -26 -37 -18 -17 14 -34 3 -34 -23 0 -15 -5 -19 -20 -15 -11 3 -23
0 -28 -6 -13 -22 -99 -86 -148 -112 -36 -19 -58 -25 -81 -20 -27 5 -33 2 -53
-30 -12 -19 -32 -43 -46 -54 -13 -10 -24 -23 -24 -27 0 -5 -13 -19 -28 -31
-15 -12 -38 -31 -51 -42 -13 -12 -28 -21 -33 -21 -5 0 -41 -33 -81 -74 -40
-41 -94 -91 -122 -111 -52 -38 -159 -133 -251 -220 -29 -27 -101 -95 -159
-150 -153 -142 -346 -337 -427 -430 -39 -44 -109 -118 -157 -165 -48 -47 -101
-107 -118 -135 -61 -96 -163 -266 -163 -272 0 -25 -222 -262 -245 -263 -6 0
-20 -7 -30 -15 -11 -8 -37 -28 -59 -45 -21 -16 -45 -30 -53 -30 -18 0 -106
-45 -125 -63 -45 -45 -202 -108 -229 -92 -4 3 -16 1 -26 -4 -10 -6 -54 -15
-98 -21 -44 -7 -107 -15 -140 -20 -100 -14 -371 -16 -665 -5 -260 9 -305 17
-450 74 -58 23 -114 45 -125 48 -11 3 -42 16 -70 29 -47 22 -118 48 -445 164
-256 91 -414 153 -440 175 -8 6 -55 25 -105 40 -49 15 -102 36 -117 46 -14 11
-33 19 -41 19 -9 0 -19 4 -22 10 -3 5 -13 10 -21 10 -8 0 -33 9 -57 19 -23 11
-82 34 -132 51 -49 17 -112 42 -140 54 -27 13 -72 31 -100 41 -27 9 -66 25
-85 35 -19 10 -53 24 -75 31 -22 6 -51 19 -65 28 -24 15 -64 35 -120 59 -14 6
-60 27 -102 46 -42 20 -79 36 -81 36 -3 0 -77 34 -164 76 -149 71 -248 126
-301 165 -12 10 -56 34 -96 53 -41 20 -79 43 -87 52 -14 17 -20 296 -7 310 11
10 98 -72 130 -124 15 -23 38 -46 51 -51 13 -5 32 -22 42 -37 l18 -29 10 30
c5 17 23 45 40 63 34 35 65 40 142 22 43 -10 224 -29 318 -34 37 -2 64 2 77
11 11 8 25 11 31 7 12 -7 85 13 106 29 7 5 37 10 67 11 46 2 58 7 83 34 15 17
48 39 73 50 25 11 52 27 60 37 8 10 45 42 82 72 39 31 86 81 110 117 39 58
153 166 175 166 23 0 133 115 176 184 26 42 47 81 47 87 0 6 27 38 60 71 33
34 60 65 60 70 0 4 16 31 36 60 20 28 43 72 52 97 8 25 26 60 38 77 21 27 31
55 33 91 1 7 17 27 36 46 26 25 37 47 45 85 5 28 25 81 45 118 19 38 35 74 35
80 0 7 4 14 10 16 5 1 17 32 26 68 9 36 19 70 23 75 4 6 18 44 30 85 12 41 33
98 46 126 14 28 25 60 25 70 0 11 4 24 8 30 5 5 19 36 32 69 13 33 29 69 36
80 7 11 17 53 23 93 6 41 20 90 30 110 24 47 47 127 62 217 6 39 17 86 25 105
7 19 20 66 29 104 9 38 21 76 27 84 7 7 15 35 19 60 15 90 26 128 57 193 17
37 38 102 47 145 8 43 25 91 35 106 11 15 20 32 20 37 0 6 9 25 20 43 11 18
20 46 20 61 0 15 6 40 14 55 11 23 27 80 31 117 3 20 29 100 36 110 4 6 10 28
14 50 4 22 22 79 41 128 19 48 34 97 34 110 0 21 58 202 85 262 7 17 20 55 29
85 26 86 58 161 86 205 15 22 32 58 38 80 52 177 66 221 72 225 4 3 11 24 15
47 4 24 11 45 16 49 5 3 9 14 9 24 0 11 14 35 30 53 17 19 33 50 37 68 3 19
15 47 25 62 15 20 18 35 13 55 -10 37 -15 72 -16 104 0 34 -42 132 -75 175
-13 17 -24 45 -24 61 0 29 -44 149 -61 166 -5 6 -9 20 -9 32 0 12 -8 28 -17
35 -9 8 -29 31 -44 53 -75 103 -482 451 -609 521 -104 58 -122 69 -141 87 -23
22 -140 81 -194 98 -53 17 -172 76 -210 104 -38 28 -116 65 -230 110 -49 19
-108 44 -130 55 -34 16 -88 34 -145 46 -8 2 -31 9 -50 15 -75 23 -129 28 -231
20 -105 -7 -154 -24 -219 -75 -8 -6 -31 -17 -50 -24 -19 -7 -75 -33 -125 -56
-77 -38 -105 -45 -195 -55 -58 -7 -141 -18 -185 -26 -44 -7 -107 -16 -140 -20
-33 -3 -64 -9 -70 -12 -5 -3 -35 -10 -65 -14 -30 -4 -95 -16 -145 -27 -49 -11
-91 -18 -93 -17 -1 2 4 23 12 47 14 40 16 106 15 369 0 67 36 382 51 449 22
93 41 131 69 131 10 0 36 7 57 16 31 14 80 17 239 19 110 2 213 6 228 10 20 5
33 3 47 -10 17 -16 33 -17 127 -11 60 4 126 12 148 17 22 6 67 14 100 19 33 4
114 22 180 40 92 24 131 30 165 25 74 -11 142 -6 205 15 19 6 61 13 92 14 55
3 152 31 216 62 16 8 33 14 39 14 5 0 25 7 44 15 19 8 50 22 70 31 19 9 50 17
69 19 45 4 143 54 238 121 64 45 82 65 107 114 16 32 34 61 39 64 5 4 12 19
16 35 3 16 12 34 18 40 7 5 14 24 15 40 4 50 -50 238 -89 310 -11 20 -19 41
-19 46 0 17 -70 156 -95 190 -12 17 -25 40 -29 51 -3 12 -15 29 -26 39 -11 10
-20 23 -20 28 0 5 -9 19 -20 31 -11 12 -78 82 -148 156 -162 172 -210 218
-244 236 -16 8 -28 19 -28 25 0 6 -6 9 -13 6 -7 -3 -19 3 -25 14 -7 10 -43 39
-82 65 -38 25 -70 49 -70 54 0 4 -8 11 -17 14 -10 4 -43 21 -74 39 -31 18 -90
51 -130 74 -88 50 -157 77 -263 103 -93 24 -108 24 -161 4 -52 -19 -276 -47
-387 -48 -80 -1 -87 -3 -85 -20 1 -15 -7 -22 -33 -30 -19 -5 -37 -13 -40 -17
-11 -15 -128 -47 -197 -54 -57 -5 -76 -12 -94 -31 -18 -19 -33 -24 -72 -24
l-50 0 7 83 c7 76 13 197 20 392 11 290 25 362 78 397 13 9 31 39 42 69 11 30
27 65 36 79 9 14 23 41 30 60 7 19 19 43 26 54 9 12 10 26 4 42 -10 25 2 110
19 143 16 29 8 234 -10 262 -9 13 -24 49 -34 79 -9 30 -21 59 -26 65 -5 5 -9
26 -9 46 0 44 -29 100 -78 149 -60 60 -121 150 -128 188 -7 38 -21 52 -206
227 -161 152 -191 179 -253 225 -97 73 -165 136 -165 153 0 16 -79 84 -113 98
-18 7 -70 35 -116 63 -47 27 -121 62 -165 78 -44 15 -94 41 -111 56 -74 67
-118 95 -161 100 -29 3 -44 1 -44 -7 0 -16 -21 -14 -66 8 -99 48 -277 73 -394
54z m15 -5875 c4 -35 5 -241 3 -459 -2 -319 -6 -399 -17 -413 -14 -17 -111
-69 -111 -60 0 6 -120 -59 -160 -86 -14 -9 -41 -23 -60 -30 -19 -7 -65 -28
-102 -47 -37 -18 -84 -39 -105 -47 -36 -13 -134 -51 -213 -81 -19 -8 -82 -32
-140 -53 -138 -52 -131 -49 -165 -72 -16 -11 -43 -27 -59 -36 -16 -9 -50 -31
-75 -48 -25 -18 -68 -45 -96 -60 -90 -50 -249 -195 -359 -326 -39 -47 -81 -95
-93 -108 -12 -12 -42 -50 -65 -83 -24 -34 -62 -89 -86 -123 -24 -33 -59 -86
-79 -116 -20 -30 -39 -57 -42 -60 -17 -15 -51 -72 -52 -87 0 -10 -11 -36 -24
-58 -14 -22 -29 -52 -36 -68 -6 -15 -20 -32 -30 -38 -10 -5 -19 -15 -19 -22 0
-7 -10 -33 -22 -59 -17 -37 -28 -48 -45 -48 -33 0 -32 45 2 62 l24 13 -19 44
c-16 35 -20 66 -20 170 0 143 -11 178 -94 294 -46 66 -60 92 -126 252 -23 55
-55 128 -71 162 -34 71 -59 187 -59 271 0 42 -6 66 -26 100 -24 41 -26 52 -22
126 3 44 11 92 17 106 17 36 106 94 147 96 18 1 72 23 119 48 46 25 92 46 100
46 8 0 15 5 15 10 0 6 6 10 13 10 7 0 28 11 47 23 22 15 57 26 94 30 33 3 62
10 65 15 10 16 106 61 157 73 27 6 58 20 69 30 11 9 33 21 48 24 15 4 61 26
102 50 41 23 107 52 147 65 40 13 89 33 108 45 19 12 54 29 78 38 24 10 75 35
113 57 39 22 75 40 80 40 6 0 36 17 67 38 65 43 133 77 146 74 4 -2 13 2 20 7
6 5 34 17 61 26 28 10 75 33 106 52 65 39 129 58 286 82 99 16 116 21 149 50
31 27 43 32 73 28 26 -3 42 1 56 14 11 10 31 20 45 23 35 6 97 34 105 46 14
23 24 6 30 -52z m2959 -1033 c41 -6 56 -14 95 -54 25 -27 69 -78 96 -114 28
-36 60 -70 73 -76 12 -6 22 -15 22 -21 0 -6 37 -56 81 -112 l82 -100 -6 -72
c-4 -39 -13 -90 -21 -112 -8 -23 -22 -79 -31 -125 -9 -46 -22 -102 -30 -124
-7 -22 -30 -103 -50 -180 -20 -77 -52 -187 -70 -245 -19 -58 -41 -132 -50
-165 -9 -33 -23 -82 -31 -109 -7 -26 -14 -55 -14 -63 0 -8 -6 -29 -14 -46 -15
-35 -36 -107 -42 -147 -5 -30 -49 -196 -68 -260 -8 -25 -20 -70 -26 -100 -15
-68 -32 -110 -42 -104 -10 7 -10 77 1 132 9 45 0 102 -23 157 -7 16 -26 64
-42 105 -35 91 -93 186 -186 304 -13 17 -34 51 -48 77 -23 43 -111 119 -139
119 -4 0 -14 7 -21 15 -16 19 -117 66 -154 70 -15 3 -34 9 -41 15 -7 5 -39 15
-71 21 -33 6 -73 19 -90 30 -21 13 -65 22 -135 29 -57 6 -110 13 -117 15 -6 2
-40 -4 -75 -15 -34 -11 -69 -20 -78 -20 -20 0 -44 53 -33 72 14 22 22 134 28
373 9 399 17 455 66 455 10 0 22 5 25 10 3 6 17 10 29 10 13 0 35 9 49 20 14
12 51 29 81 40 31 10 80 32 110 48 29 17 75 35 102 41 27 7 65 16 84 20 62 15
134 43 197 77 33 19 74 34 90 34 15 0 78 14 138 31 159 44 218 58 235 54 8 -2
37 -6 64 -10z m-3232 -1115 c212 -1 217 -1 224 -22 5 -16 -2 -461 -9 -578 -2
-26 -16 -34 -308 -176 -99 -48 -288 -148 -344 -180 -27 -16 -68 -38 -90 -48
-22 -10 -49 -24 -60 -29 -11 -6 -37 -19 -58 -30 -22 -10 -68 -36 -103 -58 -35
-21 -68 -39 -73 -39 -5 0 -11 -3 -13 -7 -6 -15 -95 -53 -124 -53 -16 -1 -47
-7 -69 -15 -52 -19 -122 -19 -159 0 -30 16 -46 12 -46 -11 0 -8 -4 -13 -9 -9
-5 3 -12 1 -15 -4 -3 -5 -28 -14 -56 -21 -27 -7 -50 -15 -50 -20 0 -15 32 -83
52 -110 11 -15 22 -47 24 -71 7 -84 13 -115 28 -144 9 -17 16 -35 16 -41 0
-11 63 -135 84 -165 6 -9 40 -47 76 -86 73 -78 163 -142 254 -179 34 -14 77
-34 98 -44 20 -10 52 -22 72 -25 19 -4 40 -13 46 -20 6 -7 37 -25 68 -41 31
-15 70 -38 85 -51 16 -13 54 -35 85 -50 32 -15 69 -35 83 -46 26 -19 105 -43
184 -56 22 -3 72 -23 110 -44 39 -21 81 -43 95 -50 24 -12 25 -18 28 -104 3
-91 3 -92 -25 -108 l-28 -15 30 2 30 3 9 -147 c5 -81 5 -167 2 -192 l-7 -45
-137 -66 c-75 -37 -222 -108 -327 -159 -104 -51 -227 -106 -272 -121 -96 -34
-92 -36 -163 70 -26 39 -56 77 -65 85 -10 8 -34 39 -54 69 -68 101 -122 173
-174 227 -41 44 -51 59 -92 139 -32 63 -37 71 -107 177 -75 114 -120 200 -142
268 -16 49 -53 137 -75 180 -4 8 -13 40 -20 70 -7 30 -19 71 -26 90 -7 19 -18
76 -24 127 -6 50 -16 115 -21 144 -13 66 -13 286 0 408 7 61 7 98 1 104 -6 6
-7 17 -1 28 6 9 12 39 14 66 2 26 10 68 16 93 42 161 51 199 56 230 3 19 9 44
14 55 8 21 26 74 61 185 27 82 91 213 132 267 65 85 93 118 127 151 34 33 115
92 126 92 3 0 17 9 30 19 23 18 112 49 249 85 68 18 224 36 317 36 35 0 68 4
75 8 6 4 37 6 70 4 32 -1 156 -2 275 -2z m3188 -1254 c0 -2 -7 -23 -15 -47 -9
-24 -36 -116 -61 -203 -41 -143 -122 -379 -191 -556 -34 -87 -95 -212 -166
-340 -73 -133 -66 -120 -108 -182 -20 -29 -58 -86 -84 -127 -67 -102 -110
-118 -232 -85 -171 46 -210 56 -228 58 -11 2 -49 6 -85 11 -36 4 -88 9 -115
10 -80 2 -80 2 -54 125 13 62 14 83 8 300 -2 97 1 168 8 190 6 19 14 47 17 62
4 19 18 34 44 46 20 11 51 26 67 34 137 71 175 88 194 88 12 0 36 7 53 16 17
9 40 18 52 20 117 19 194 54 276 123 89 76 93 78 160 140 37 34 93 72 130 89
44 20 76 43 98 71 25 32 40 41 63 41 31 0 73 35 84 71 4 11 18 26 33 34 26 13
52 19 52 11z"/>
<path d="M4261 18361 c-6 -10 -7 -21 -4 -25 3 -3 -3 -6 -14 -6 -27 0 -33 -18
-33 -101 0 -69 -5 -80 -28 -57 -8 8 -14 5 -22 -16 -5 -15 -10 -37 -10 -50 0
-12 -5 -27 -11 -33 -8 -8 -6 -20 6 -42 9 -17 13 -36 10 -41 -15 -25 71 -267
134 -375 20 -33 38 -62 41 -65 47 -40 75 -120 48 -137 -17 -10 -62 -5 -103 13
-19 8 -45 14 -58 14 -14 0 -30 7 -37 15 -16 20 -38 19 -42 -1 -2 -13 -16 -6
-63 31 -120 96 -155 136 -155 176 0 50 -35 101 -135 200 -57 56 -79 61 -93 22
-6 -16 -20 -53 -31 -83 -12 -30 -21 -65 -21 -77 0 -12 -5 -25 -10 -28 -6 -4
-7 -11 -4 -17 12 -18 23 -80 17 -94 -3 -8 -12 -14 -20 -14 -11 0 -13 -5 -8
-17 6 -16 34 -156 35 -175 0 -3 -17 -12 -37 -19 -21 -6 -56 -20 -78 -30 -38
-17 -117 -35 -255 -59 -36 -6 -82 -22 -102 -36 -21 -13 -43 -24 -49 -24 -6 0
-31 -18 -56 -40 -25 -22 -51 -40 -58 -40 -6 0 -24 -13 -40 -30 -16 -16 -34
-30 -40 -30 -17 0 -100 -89 -100 -107 0 -10 -10 -22 -22 -28 -30 -15 -57 -52
-74 -98 -16 -44 -85 -129 -149 -182 -25 -21 -104 -97 -176 -169 -72 -72 -154
-151 -184 -176 -29 -25 -65 -63 -79 -86 -14 -22 -62 -72 -106 -111 -82 -72
-125 -117 -125 -131 0 -4 -19 -20 -41 -37 -23 -16 -64 -55 -93 -86 -28 -31
-79 -77 -113 -103 -35 -26 -66 -53 -70 -61 -5 -7 -36 -34 -71 -60 -35 -26 -70
-58 -78 -70 -8 -12 -80 -55 -160 -96 -80 -40 -154 -84 -164 -96 -10 -13 -39
-32 -64 -44 -50 -22 -63 -44 -20 -33 43 11 25 -17 -32 -48 -42 -24 -61 -28
-129 -28 -51 0 -88 -5 -100 -14 -11 -7 -32 -16 -46 -19 -23 -6 -26 -12 -27
-49 -1 -50 -24 -111 -58 -151 -13 -16 -24 -33 -24 -39 0 -5 -21 -36 -48 -68
-88 -109 -152 -196 -174 -236 -11 -21 -29 -50 -39 -63 -13 -17 -19 -40 -19
-80 0 -31 -4 -73 -9 -93 -5 -21 -6 -67 -4 -102 5 -61 9 -68 54 -116 27 -29 49
-54 49 -57 0 -10 43 -43 56 -43 6 0 31 -16 54 -35 37 -31 46 -34 84 -29 35 5
49 2 78 -17 19 -13 60 -41 91 -62 38 -25 57 -44 57 -58 0 -52 99 -179 141
-179 12 0 30 -7 38 -15 36 -32 232 -125 264 -125 18 0 38 -5 43 -10 6 -6 33
-13 60 -16 39 -5 61 -2 96 15 26 11 53 21 61 21 20 0 40 27 34 44 -9 22 82
103 132 118 24 7 54 23 67 35 13 12 37 30 54 40 17 10 51 48 76 85 24 37 55
75 69 85 14 10 53 44 86 76 33 31 64 57 67 57 7 0 14 8 65 75 38 49 40 64 11
102 l-25 34 23 19 c47 40 61 35 169 -51 58 -48 101 -62 122 -42 13 13 21 13
73 -2 62 -19 172 -25 239 -13 22 3 96 9 165 13 181 9 179 9 266 41 57 20 90
40 119 69 40 40 82 65 111 65 25 0 83 44 95 72 12 30 58 68 104 86 32 13 125
110 193 201 44 59 128 129 178 150 42 17 114 89 115 115 1 12 0 33 -1 47 -1
19 10 34 41 60 38 31 48 34 113 36 39 1 84 3 100 5 18 2 31 -2 34 -11 3 -10
-2 -11 -19 -6 -21 7 -22 6 -10 -9 7 -9 19 -16 26 -16 20 0 44 -34 71 -101 20
-50 26 -86 29 -164 2 -55 10 -118 18 -140 14 -37 14 -41 -9 -74 -13 -20 -24
-40 -24 -45 0 -5 -15 -30 -34 -56 -43 -60 -78 -127 -74 -143 1 -7 -6 -22 -17
-35 -21 -23 -83 -133 -134 -237 -17 -33 -46 -77 -65 -97 -30 -33 -106 -174
-106 -199 0 -5 -4 -17 -9 -27 -5 -9 -20 -38 -32 -64 -13 -27 -27 -48 -30 -48
-4 0 -10 -17 -14 -37 -9 -52 -41 -112 -80 -150 -18 -18 -36 -45 -40 -62 -4
-18 -14 -31 -27 -34 -13 -4 -19 -11 -15 -21 3 -8 -10 -36 -29 -63 -19 -26 -34
-52 -34 -58 0 -5 -20 -41 -45 -80 -25 -38 -45 -75 -45 -81 0 -6 -6 -17 -14
-23 -8 -7 -17 -24 -21 -39 -3 -15 -16 -43 -28 -62 -13 -19 -31 -55 -42 -80
-10 -25 -24 -52 -30 -60 -7 -8 -17 -33 -23 -55 -13 -52 -32 -104 -47 -135 -7
-14 -26 -70 -42 -125 -24 -87 -28 -117 -28 -230 0 -117 2 -134 23 -168 12 -21
22 -47 22 -57 0 -10 21 -45 48 -77 26 -32 73 -93 105 -135 32 -43 62 -78 66
-78 18 0 75 -100 88 -155 8 -33 24 -76 37 -96 13 -19 25 -44 27 -54 4 -17 64
-67 119 -99 46 -26 318 -313 386 -406 78 -107 107 -153 139 -215 14 -27 32
-61 40 -75 14 -24 137 -280 140 -290 18 -66 25 -97 35 -155 6 -38 20 -90 30
-115 11 -27 21 -81 24 -135 6 -93 23 -173 47 -215 8 -16 14 -63 15 -125 1 -55
8 -121 15 -147 10 -38 10 -69 0 -150 -20 -171 -28 -213 -50 -264 -25 -56 -123
-195 -193 -274 -27 -30 -71 -79 -96 -108 -116 -132 -191 -207 -241 -241 -29
-20 -65 -44 -80 -54 -14 -9 -57 -27 -96 -38 -38 -12 -115 -38 -170 -59 -55
-21 -113 -42 -128 -45 -30 -8 -250 42 -341 76 -27 11 -57 19 -68 19 -11 0 -32
8 -46 19 -20 13 -51 20 -112 23 -63 4 -94 10 -120 26 -20 12 -76 31 -125 42
-50 12 -103 26 -120 33 -16 6 -34 12 -40 12 -16 0 -23 62 -13 112 13 60 17
828 6 908 -7 52 -16 156 -33 409 -2 33 -9 82 -14 110 -20 100 -19 629 1 684
10 28 12 113 10 361 -2 178 -7 331 -12 340 -5 9 -21 57 -35 106 -15 50 -37
117 -50 150 -13 33 -26 77 -30 97 -7 48 -25 81 -69 132 -20 23 -57 67 -83 99
-82 102 -363 378 -443 434 -25 18 -67 44 -95 59 -27 14 -63 36 -80 49 -64 47
-254 119 -341 128 -30 4 -80 20 -121 41 -39 20 -73 36 -76 36 -4 0 -32 12 -63
26 -54 25 -151 55 -244 76 -55 12 -231 21 -440 22 -172 1 -170 2 -260 -71 -38
-32 -61 -43 -86 -43 -25 0 -41 -8 -61 -30 -15 -17 -36 -30 -50 -30 -26 0 -78
-72 -69 -96 7 -19 -22 -84 -38 -84 -15 0 -26 -42 -26 -101 0 -31 4 -39 18 -39
21 0 92 -57 92 -74 0 -7 11 -18 25 -24 27 -13 166 -121 206 -161 14 -14 52
-71 84 -126 32 -55 62 -102 65 -105 4 -3 29 -45 54 -94 26 -49 56 -101 67
-115 74 -96 127 -193 138 -257 6 -29 29 -89 51 -134 23 -47 47 -114 55 -154
15 -75 40 -168 55 -201 5 -11 12 -56 15 -100 9 -115 14 -155 35 -300 10 -71
22 -150 25 -175 4 -25 9 -52 13 -60 7 -18 6 -10 31 -209 11 -90 20 -166 19
-170 -1 -3 1 -31 5 -61 12 -100 17 -243 17 -456 0 -189 -3 -267 -16 -374 -2
-19 -6 -88 -8 -152 -2 -65 -6 -121 -9 -125 -10 -19 8 -416 24 -523 12 -87 17
-115 19 -115 4 0 11 -204 15 -420 2 -126 8 -349 14 -495 6 -146 13 -456 16
-690 5 -419 8 -528 19 -705 4 -49 9 -130 12 -180 2 -49 9 -119 15 -155 5 -38
6 -99 2 -145 -5 -44 -6 -100 -2 -124 7 -55 -6 -232 -25 -336 -9 -44 -18 -105
-20 -135 -3 -30 -10 -104 -16 -165 -6 -60 -10 -132 -10 -160 2 -80 -6 -190
-13 -202 -4 -6 -10 -33 -13 -60 -4 -26 -10 -55 -15 -63 -4 -9 -10 -65 -14
-125 -6 -96 -24 -245 -39 -325 -15 -79 -35 -215 -41 -280 -4 -41 -12 -81 -18
-89 -6 -7 -11 -41 -10 -75 8 -411 12 -459 59 -582 13 -35 28 -104 34 -154 13
-100 46 -195 84 -241 14 -17 26 -36 26 -44 0 -7 7 -26 15 -41 8 -16 15 -39 15
-52 0 -46 146 -256 244 -352 25 -24 46 -50 46 -57 0 -7 4 -13 9 -13 8 0 18
-19 26 -50 15 -53 147 -178 239 -226 47 -25 96 -63 146 -113 l75 -76 110 -18
c61 -9 139 -20 175 -23 36 -4 70 -10 75 -14 6 -4 39 -8 74 -8 36 -1 72 -4 81
-7 9 -3 33 4 55 15 22 11 44 20 51 20 6 0 19 9 29 20 10 11 26 20 35 20 31 0
118 109 105 130 -3 6 -3 10 2 10 4 0 13 10 19 23 5 12 20 40 32 62 25 46 46
122 60 215 5 36 19 85 30 110 30 64 42 294 22 415 -15 90 -3 532 16 632 22
111 24 347 5 573 -9 114 -11 193 -4 255 5 51 5 149 0 225 -5 84 -4 198 2 300
6 91 8 209 6 263 -3 54 -1 113 4 133 6 21 6 47 0 66 -7 25 -6 34 6 41 18 10
21 142 4 197 -6 19 -12 67 -15 105 -3 39 -11 117 -19 175 -7 58 -17 159 -20
225 -4 66 -11 140 -16 164 -5 24 -12 143 -14 265 -3 121 -8 282 -11 356 -15
308 -20 1052 -8 1072 3 5 5 65 5 132 -2 132 0 136 52 136 26 0 127 -49 127
-62 0 -5 10 -13 23 -19 21 -10 44 -23 143 -83 31 -19 61 -29 86 -29 28 0 43
-5 51 -18 7 -11 19 -19 28 -19 24 0 85 -47 164 -127 44 -44 84 -75 108 -82 20
-7 37 -19 37 -26 0 -15 79 -35 139 -35 23 0 48 -8 64 -20 14 -11 29 -20 34
-20 31 0 88 -26 123 -55 23 -19 48 -35 56 -35 8 0 14 -4 14 -9 0 -5 21 -17 48
-26 26 -10 57 -22 70 -28 17 -8 32 -7 59 2 20 7 90 15 155 17 114 4 122 5 164
34 25 16 51 30 58 30 14 0 158 73 196 100 14 9 48 27 76 39 32 14 73 45 108
81 39 41 69 62 100 71 52 15 72 31 110 87 16 24 66 73 110 109 45 36 96 82
114 102 70 77 131 185 137 241 2 22 17 64 24 70 9 8 51 69 51 75 0 7 87 115
108 135 30 28 62 79 62 99 0 12 14 49 31 83 29 61 36 86 60 212 7 32 22 75 35
94 13 19 24 43 24 54 0 11 5 29 12 41 7 12 16 58 20 102 10 115 26 233 37 285
5 25 9 94 9 153 0 69 4 113 12 122 15 18 7 241 -10 295 -7 19 -13 89 -15 155
-5 178 -30 298 -84 403 -12 23 -21 49 -21 58 0 17 -15 68 -31 109 -4 11 -11
31 -14 45 -9 35 -34 88 -44 94 -5 3 -12 18 -16 33 -6 27 -68 166 -85 193 -19
30 -110 218 -110 228 0 5 -18 30 -40 55 -22 25 -40 52 -40 60 0 8 -7 20 -16
28 -8 7 -24 29 -34 48 -15 31 -157 174 -558 565 -80 78 -83 82 -76 116 3 19 8
50 9 67 6 64 41 215 59 258 7 17 23 57 36 90 41 112 82 183 138 244 44 47 47
53 73 123 19 56 31 73 67 98 23 16 47 42 53 57 6 16 18 37 28 48 10 11 30 59
45 107 25 81 38 109 98 218 14 25 28 62 32 83 4 20 11 37 17 37 5 0 13 8 16
18 4 9 15 25 24 36 10 10 21 33 25 50 3 17 17 51 30 76 13 25 24 51 24 58 0 8
17 39 38 70 20 31 46 79 57 106 13 34 32 58 55 73 93 61 112 79 136 124 9 18
29 43 45 56 16 14 37 38 46 54 10 16 22 29 28 29 17 0 49 39 83 103 35 65 36
65 91 128 38 43 111 183 111 213 0 20 32 119 43 134 6 7 30 51 53 98 24 46 61
106 83 132 23 27 41 53 41 59 0 18 49 163 69 201 34 70 86 167 91 172 5 5 18
29 62 113 14 25 23 70 29 143 4 58 13 112 20 120 13 16 8 93 -16 204 -9 41
-20 95 -25 120 -23 112 -48 179 -100 274 -22 40 -40 86 -40 102 0 37 -94 225
-154 307 -79 109 -99 131 -150 169 -28 21 -64 50 -80 65 -29 28 -130 96 -197
132 -21 11 -44 28 -54 37 -60 60 -178 148 -240 177 -40 20 -119 47 -175 61
-86 21 -110 31 -150 65 -27 23 -51 41 -55 41 -15 0 -120 53 -150 75 -18 14
-61 34 -96 45 -35 11 -85 33 -110 48 -60 35 -189 155 -189 175 0 10 -34 32
-87 59 -49 24 -90 46 -93 49 -3 3 -23 17 -45 31 -56 35 -165 145 -165 165 0 9
-11 33 -24 52 -14 20 -37 74 -52 121 -15 47 -35 95 -44 107 -10 12 -27 49 -40
83 -23 61 -42 74 -59 41z"/>
</g>
</svg>
